<svg xmlns="http://www.w3.org/2000/svg" id="Layer_14" data-name="Layer 14" viewBox="37.02 64.99 1025.55 6.67"><path stroke-width="2" stroke="currentColor" fill="currentColor" d="m1062.57,71.09h0c-.21.08-.37.19-.62.25-.19.04-.43.04-.64.04-1.87.01-3.75.06-5.62,0-.44-.02-.79-.2-1.23-.23-.83-.06-1.68-.04-2.51-.04-2.29,0-4.58-.06-6.86,0-.44.01-.79.2-1.23.23-.62.05-1.26.06-1.89.04-.32-.01-.66-.05-.92-.13-.37-.11-.72-.25-.95-.42-.17-.12-.39-.3-.21-.42.33-.23.95-.35,1.51-.46.97-.2,1.98-.37,3.03-.47.63-.06,1.29-.04,1.93,0,.24.02.36.18.61.18.26,0,.4-.19.65-.18,4.47.28,8.9.65,13.32,1.04.57.05,1.15.14,1.61.3m-39.1-.15h0c-.17.15-.24.34-.54.44-.62.22-1.33.43-2.12.51-.44.04-.82-.19-1.27-.2-.44,0-.82.18-1.27.18-.24,0-.38-.17-.62-.17s-.38.17-.62.17-.37-.15-.61-.18c-.21-.03-.45-.03-.66,0-.43.05-.79.2-1.23.23-.42.03-.85,0-1.27-.04-.43-.05-.79-.23-1.23-.23-4.59-.07-9.2.2-13.76,0-.69-.03-1.3-.38-1.42-.68-.08-.22.55-.39.98-.49.92-.22,1.92-.39,2.94-.45.46-.02.82.22,1.27.22.44,0,.81-.21,1.25-.21.45,0,.81.21,1.25.22,5.83.07,11.69-.2,17.5,0m-39.75.41h0c-.68.22-1.24.55-2.05.66-1,.13-2.1.07-3.15.03-8.03-.25-16.06-.47-24.05-.88-.34-.02-.71-.23-.59-.37.26-.29.82-.61,1.51-.66,2.68-.19,5.43-.09,8.14-.03,5.88.12,11.75.33,17.6.57.81.03,1.65.07,2.35.25m-42.86-.14h0c-.31.16-.47.43-.94.48-2.6.28-5.29.33-7.94.47-.43.02-.88.04-1.3,0-.24-.02-.36-.18-.61-.18-.24,0-.38.17-.62.17s-.38-.17-.62-.17-.38.17-.62.17c-.45-.01-.81-.2-1.25-.22-1.87-.06-3.74-.01-5.62,0-.42,0-.86-.01-1.27.04-.23.03-.35.17-.59.2-.62.06-1.26.04-1.89.04-.64,0-1.29.01-1.91-.04-1.42-.12-2.88-.2-4.19-.46-.35-.07-.41-.31-.44-.48-.02-.14.12-.29.29-.41.14-.1.34-.21.61-.24.61-.07,1.26-.04,1.89-.04.84,0,1.68-.02,2.51.04.44.03.79.23,1.23.23.66,0,1.22-.25,1.87-.27,3.53-.08,7.08-.07,10.61,0,.44,0,.8.21,1.25.22.24,0,.38-.17.62-.17.24,0,.36.18.61.18.66-.01,1.24-.21,1.89-.23,1.45-.05,2.91-.04,4.37,0,.32,0,.67.05.92.13m-41.86,1.01h0c-.49.16-.93.35-1.47.48-.19.05-.44.03-.66.03-1.24,0-2.5.05-3.74,0-.44-.02-.8-.22-1.25-.22s-.81.21-1.25.22c-7.49.07-14.98.04-22.47,0-.5,0-1.11.03-1.46-.13-.3-.13-.11-.38-.09-.56.01-.12.05-.26.19-.37.26-.21.45-.51.97-.57.56-.07,1.07.23,1.64.24,6.45.07,12.9.08,19.34,0,1.06-.01,2.06-.3,3.12-.28,2.27.05,4.51.28,6.73.5.18.02.31.11.36.19m-53.67.56h0c-.68.22-1.31.48-2.05.66-.21.05-.47,0-.7,0-7.79-.2-15.61-.27-23.36-.64-.36-.02-.14-.35.06-.48.35-.22.9-.38,1.47-.48.39-.07.85-.04,1.28-.04,6.86-.01,13.73-.14,20.59,0,.85.02,1.57.29,2.31.47.18.05.34.12.41.21m-42,.1h0c-6.25.02-12.5.14-18.74.05-3.93-.06-7.87-.19-11.74-.5-.37-.03-.39-.3-.42-.47-.02-.14.12-.29.29-.41.14-.1.36-.19.61-.24.19-.04.43-.04.64-.04,3.33-.01,6.66-.06,9.98,0,.44,0,.8.22,1.25.22.44,0,.81-.22,1.25-.21.66.01,1.22.25,1.87.27,4.59.08,9.25-.36,13.77,0,1.02.08,1.02.81,1.42,1.24m-53.07-1.39h0c-.17.14-.2.34-.51.42-1.06.26-2.22.47-3.42.55-1.44.1-2.91.06-4.36,0-.44-.02-.8-.19-1.23-.23-.41-.05-.84-.04-1.27-.04-5.2-.01-10.4-.07-15.6,0-.45,0-.82.26-1.27.22-.59-.05-1.04-.29-1.48-.47-.09-.04-.05-.11-.05-.16,0-.14-.24-.35.02-.43,1.02-.29,2.2-.51,3.4-.55,3.73-.14,7.49-.08,11.23,0,.66.01,1.22.26,1.87.27s1.22-.25,1.87-.26c.44,0,.79.19,1.23.23.62.05,1.26.04,1.89.04,1.04,0,2.08.05,3.12,0,.44-.02.8-.19,1.23-.23.41-.04.84-.06,1.27-.04.32.01.66.05.92.13m-37.1.68h0c-.26.12-.4.32-.76.35-4.29.25-8.62.37-12.95.46-.26,0-.39-.16-.63-.19-.21-.03-.45-.03-.66,0-.43.05-.79.21-1.23.23-1.45.06-2.92.05-4.37,0-3.29-.12-6.61-.21-9.85-.5-.47-.04-.97-.27-.95-.48.02-.27.64-.46,1.05-.66.08-.04.24-.02.36-.02,2.09,0,4.19-.07,6.27,0,.66.02,1.22.24,1.87.27,1.66.07,3.33.01,4.99,0,.63,0,1.27.02,1.89-.04.24-.02.34-.19.59-.19.44,0,.81.19,1.25.19.44,0,.82-.18,1.27-.18s.82.18,1.27.18c.24,0,.35-.17.59-.19.42-.04.87-.04,1.29,0,.24.02.36.18.61.18s.37-.15.61-.18c.41-.05.85-.07,1.27-.04.44.03.8.21,1.25.22.24,0,.37-.15.61-.18.41-.05.84-.04,1.27-.04.43,0,.88-.03,1.28.04.61.1,1.13.27,1.65.44.17.05.32.13.38.22m-46.96.65h0c-.42.09-.81.24-1.27.27-.24.01-.38-.17-.62-.17-.26,0-.4.18-.65.18-5.82-.09-11.61-.38-17.42-.47-.26,0-.41.2-.67.19-2.67-.08-5.36-.17-7.96-.46-.37-.04-.4-.3-.42-.47-.02-.14.12-.29.29-.41.14-.1.36-.19.61-.24.19-.04.43-.04.64-.04,3.33-.01,6.66-.06,9.98,0,.44,0,.8.21,1.25.22.24,0,.36-.18.61-.18.44,0,.82.18,1.27.18.24,0,.38-.17.62-.17.24,0,.38.17.62.17.26,0,.4-.19.65-.18,4.07.12,8.15.27,12.17.56.32.02.54.21.58.36m-45.64,0h0c-.13.07-.21.17-.39.21-.74.18-1.49.45-2.33.45-5.2,0-10.37-.38-15.57-.47-.25,0-.38.19-.63.19-.44,0-.82-.18-1.26-.18-.24,0-.38.17-.62.17s-.38-.17-.62-.17c-.45.01-.8.21-1.25.22-2.07.06-4.16.04-6.24,0-.3,0-.69-.01-.84-.13-.22-.16-.16-.38-.09-.56.06-.17.16-.38.47-.49.66-.23,1.46-.4,2.29-.45.65-.04,1.27.2,1.93.2.45,0,.79-.21,1.23-.23,1.45-.06,2.91-.06,4.36,0,.45.02.8.21,1.25.22.24,0,.37-.17.61-.18,1.04-.06,2.09-.07,3.13-.04,4.71.15,9.42.3,14.09.6.32.02.46.22.56.36m-42.51,0h0c-.68.22-1.31.48-2.05.66-.21.05-.47,0-.7,0-8.25-.19-16.51-.3-24.74-.59-.44-.02-.89-.16-1.1-.33-.2-.17-.06-.38,0-.57.04-.13.08-.28.28-.38.15-.07.43-.04.64-.04,3.12-.01,6.24-.06,9.36,0,.45,0,.8.21,1.25.22.24,0,.38-.17.62-.17.45.01.8.2,1.25.22,1.24.06,2.49.01,3.74,0,.63,0,1.27.01,1.89-.04.44-.04.79-.21,1.23-.23,1.03-.06,2.09-.07,3.11,0,1.44.1,2.88.24,4.22.49.45.08.75.29.99.47m-46.38-.15h0c-.25.11-.4.33-.76.34-4.93.27-9.9.38-14.86.5-2.28.05-4.57.01-6.86,0-.43,0-.89.04-1.28-.04-.56-.11-1.11-.26-1.46-.48-.2-.13-.28-.35-.05-.47.55-.29,1.38-.46,2.14-.64.2-.05.44-.03.66-.03,6.86-.01,13.72-.01,20.59,0,.34,0,.75-.06,1.02.03.49.16.79.42,1.06.66m-38.87.42h0c-.11.1-.13.24-.35.29-1.08.24-2.22.47-3.42.55-1.44.1-2.91.06-4.36,0-.44-.02-.8-.19-1.23-.23-.41-.05-.84-.04-1.26-.04-.63,0-1.27-.01-1.89.04-.44.04-.79.2-1.23.23-.61.05-1.25.03-1.87,0-.29-.01-.63-.03-.84-.13-.15-.07-.09-.19-.09-.29,0-.19-.03-.38.08-.56.05-.09.21-.16.39-.2.95-.2,1.92-.41,2.95-.48,1.23-.09,2.5-.06,3.74,0,.44.02.8.19,1.23.23.41.04.84.04,1.26.04.63,0,1.27.01,1.89-.04.44-.04.79-.21,1.23-.23.83-.04,1.72-.08,2.51.04.54.08.9.32,1.23.52m-39.76.13h0c-.17.14-.23.33-.52.43-.64.22-1.35.5-2.16.51-9.32.01-18.64-.25-27.95-.47-.18,0-.29-.11-.34-.18-.1-.18-.12-.38-.08-.56.03-.14.13-.29.3-.41.14-.1.37-.19.61-.24.19-.04.43-.04.64-.04,8.32-.01,16.64-.07,24.96,0,.45,0,.8.21,1.25.22.25,0,.4-.2.64-.17.62.07,1.16.25,1.66.43m-36.41.78h0c-.69.22-1.26.54-2.07.65-.44.06-.81-.22-1.27-.23-3.74-.07-7.49-.02-11.23,0-.42,0-.86-.01-1.26.04-.24.03-.35.18-.59.2-.83.06-1.67.04-2.51.04-4.37.01-8.74.04-13.1,0-.3,0-.69-.01-.84-.13-.22-.16-.1-.38-.1-.56,0-.19-.08-.39.09-.56.16-.16.5-.28.83-.37.18-.05.43-.04.64-.04,2.49-.01,4.99-.06,7.48,0,.46.01.82.25,1.27.23,1.07-.06,2.01-.38,3.07-.46.25-.02.39.18.65.18.24,0,.38-.15.61-.18.21-.03.45-.03.66,0,.43.05.79.22,1.23.23.45,0,.8-.2,1.25-.21.24,0,.38.17.62.17s.38-.15.61-.18c.21-.03.45-.03.66,0,.23.03.37.18.61.18s.38-.17.62-.17.38.17.62.17.38-.17.62-.17c.24,0,.37.15.61.18.41.05.85.07,1.26.04.44-.03.8-.21,1.25-.22.24,0,.38.17.62.17.24,0,.37-.16.61-.18.62-.06,1.26-.04,1.89-.04,1.15,0,2.42-.2,3.46.02.72.15.83.61,1.13.94m-39.29.75h0c-.49.16-.93.35-1.46.48-.19.05-.44.05-.66.03-.43-.05-.79-.2-1.23-.23-1.04-.06-2.09-.04-3.14-.04-.63,0-1.27-.01-1.89.04-.44.04-.79.23-1.23.23-5.61.07-11.23.04-16.84,0-.32,0-.65-.06-.93-.13-.26-.07-.43-.18-.63-.28-.18-.09-.41-.16-.53-.27-.09-.09-.12-.19-.07-.29.09-.18.2-.37.49-.5.46-.2,1.06-.32,1.64-.44.2-.04.44-.03.66-.03,1.87-.01,3.75-.06,5.61,0,.45.02.8.19,1.23.23.41.04.84.04,1.26.04s.86,0,1.26-.04c.24-.03.36-.18.61-.18.24,0,.36.18.61.18.44,0,.82-.19,1.26-.18.45,0,.8.21,1.25.21s.8-.2,1.25-.21c.24,0,.38.17.62.17s.38-.17.62-.17.38.17.62.17c.24,0,.37-.16.61-.18.62-.05,1.26-.04,1.89-.04.83,0,1.67-.05,2.49,0,.44.03.8.19,1.23.23.41.04.85.07,1.26.04.44-.03.81-.25,1.25-.22.38.02.74.19.84.35m-44.93,1.12h0c-.12.07-.16.19-.35.2-7.02.23-14.05.52-21.08.5-3.69-.01-7.34-.33-10.98-.59-.34-.02-.66-.12-.87-.24-.2-.11-.28-.27-.31-.42-.02-.12.02-.26.18-.36.36-.23.7-.57,1.33-.61,3.1-.18,6.26-.06,9.39,0,.45,0,.8.21,1.25.22.24,0,.38-.17.62-.17.44.01.8.22,1.25.21.66-.01,1.22-.26,1.87-.27,5.2-.08,10.4-.03,15.6,0,.28,0,.57.02.82.08.48.12,1.11.21,1.31.43m-42.46.45h0c-.69.22-1.33.47-2.06.66-.19.05-.44.03-.66.03-.63,0-1.27.02-1.88-.04-.44-.04-.79-.2-1.23-.23-.41-.03-.85-.01-1.26.04-.25.03-.38.2-.63.19-2.91-.09-5.78-.38-8.68-.47-.25,0-.4.18-.65.18-.45,0-.8-.21-1.25-.22-3.53-.07-7.07-.07-10.6,0-.45,0-.83.27-1.27.22-1.33-.15-2.73-.36-3.71-.78-.53-.23-.39-.65-.32-.98.04-.21.3-.41.63-.56.23-.1.6-.14.92-.13,8.11.21,16.2.59,24.31.78.27,0,.41-.2.68-.19,2.46.08,4.91.25,7.33.46.18.02.32.11.35.19m-42.43.56h0c-.13.07-.22.17-.4.21-.73.18-1.48.36-2.28.45-.62.07-1.27.04-1.91.04-5.2,0-10.4.08-15.6,0-.47,0-.92-.13-1.25-.28-.23-.1-.33-.27-.29-.41.07-.24.09-.59.6-.67,2.07-.35,4.33-.43,6.53-.54.25-.01.38.19.63.19.65,0,1.24-.23,1.89-.23.44,0,.79.2,1.23.23,1.04.06,2.09.04,3.14.04.42,0,.86.01,1.26-.04.24-.03.35-.17.59-.2.62-.06,1.26-.04,1.89-.04.84,0,1.72-.07,2.53.04.58.08,1.18.24,1.46.48m-32.5.44h0c-.53.3-.92.66-1.58.91-.15.06-.3-.15-.49-.14-.44.02-.8.22-1.24.21-6.03-.09-12.03-.41-18.06-.51-.46,0-.85.22-1.31.2-1.79-.09-3.82-.05-5.26-.53-.74-.25-.08-.82,0-1.23.02-.13.08-.28.28-.38.15-.07.43-.04.64-.04,2.08-.01,4.16-.06,6.24,0,.45.01.8.19,1.23.23.41.04.84.04,1.26.04.63,0,1.27.02,1.89-.04.25-.02.38-.2.63-.19,4.24.11,8.48.3,12.7.54.7.04,1.44.1,2.02.28m-48.43.52h0c-.83.27-1.47.73-2.48.81-2.67.21-5.43.09-8.14.03-.46,0-.82-.26-1.27-.23-.88.06-1.57.4-2.44.47-.44.03-.83-.18-1.28-.18-.24,0-.38.15-.61.18-.22.03-.46.02-.68,0-3.37-.16-6.76-.28-10.1-.53-.72-.05-1.53-.14-2.02-.38-.29-.15-.06-.4.08-.59.23-.31.52-.63,1.01-.87.13-.06.27.13.45.15.41.05.84.07,1.26.04.44-.03.8-.22,1.25-.22.45,0,.8.21,1.25.22,3.12.07,6.24.07,9.36,0,1.06-.02,2.06-.27,3.12-.27.66,0,1.22.23,1.88.27,1.03.06,2.08.05,3.12,0,.86-.04,1.67-.27,2.53-.24,1.03.04,2.01.24,2.92.45.43.1.82.27,1,.47m-51.16-.27h0c-.33.16-.54.39-.99.48-.84.16-1.77.17-2.68.2-5.91.21-11.83.58-17.76.53-1.3-.01-2.4-.45-3.55-.71-.19-.04-.36-.12-.42-.21-.12-.18-.15-.38-.08-.56.06-.17.07-.43.44-.47,2.18-.29,4.46-.42,6.73-.49.44-.01.79.23,1.23.23.85,0,1.66-.23,2.51-.23.65,0,1.24.23,1.89.23.45,0,.79-.21,1.23-.23,1.03-.05,2.08-.05,3.12,0,.44.02.8.22,1.25.22s.8-.2,1.25-.22c1.45-.06,2.91-.04,4.36,0,.32,0,.65.06.93.13.23.06.48.15.54.27m-38.17,1.2h0c-.3.23-.35.59-.91.68-1.92.31-4.01.37-6.05.44-.25,0-.39-.16-.63-.19-.41-.05-.84-.04-1.26-.04s-.86,0-1.26.04c-.24.03-.38.22-.61.18-.92-.16-1.53-.6-2.48-.73-.43-.06-.81.22-1.27.22-.45,0-.8-.21-1.25-.21-.24,0-.37.16-.61.18-.62.05-1.26.08-1.88.04-.57-.04-1.06-.21-1.62-.26-2.36-.22-4.73-.43-7.12-.57-1.03-.06-2.08-.06-3.11,0-.44.02-.79.2-1.23.23-.63.05-1.33.12-1.9,0-.78-.16-1.32-.5-1.86-.8-.2-.11-.34-.27-.29-.41.08-.26.29-.53.65-.73.38-.21.94-.35,1.48-.48.2-.05.44-.03.66-.03,1.68,0,3.36-.04,5.03.03,2.88.12,5.74.32,8.59.53.68.05,1.3.23,1.98.26,1.03.05,2.08.05,3.11,0,.44-.02.8-.19,1.23-.23.41-.04.85-.08,1.26-.04.52.06.92.25,1.42.34.59.1,1.22.18,1.85.23,2.4.19,4.86.21,7.22.48.46.05.77.27.97.47"></path></svg>