<svg xmlns="http://www.w3.org/2000/svg" id="Layer_1" data-name="Layer 1" viewBox="144.44 144.3 115.02 111.15" class="w-[7rem]"><path d="m206.5,250.81h0c.28-.67.81-1.28.84-2,.03-.73-.75-1.35-.68-2.07.2-1.96.82-3.87,1.46-5.74,1.3-3.8,3.18-7.39,4.35-11.22.15-.5-.2-1.04-.47-1.48-.23-.37-.56-.75-.98-.87-.67-.19-1.42-.23-2.08-.01-.97.32-1.82.95-2.64,1.57-.74.57-1.82,2.9-2,1.98-1.37-6.96-1.46-14.12-1.79-21.2-.27-5.66-.05-11.33-.01-16.99,0-1.01-.05-2.04.15-3.03.08-.38.65-.58.65-.97,0-.41-.66-.64-.64-1.04.34-7.36,1.76-14.66,1.71-22.03-.04-6.5-1.21-12.95-1.97-19.41-.01-.11-.21-.04-.31-.01-.53.14-1.1.21-1.56.49-.37.22-.68.58-.87.97-.15.31-.13.69-.13,1.03-.04,5.33-.24,10.67,0,16,.05,1.06.9,2,.85,3.06-.29,7-1.51,13.94-1.84,20.94-.03.72.77,1.29.77,2,0,.72-.75,1.29-.78,2-.23,5.66-.36,11.34,0,16.99.26,4.02,1.39,7.94,1.86,11.95.16,1.36.29,2.78,0,4.12-.27,1.24-.42,3.68-1.66,3.41-1.8-.39-1.82-3.29-3.23-4.47-.65-.55-1.71-.59-2.54-.36-.93.26-1.87.88-2.34,1.73-.43.76-.35,1.79-.09,2.62,1.67,5.42,4.18,10.55,5.82,15.97.12.4-.79.68-.66,1.07.88,2.67,2.15,5.21,3.54,7.65.4.71,1.01,1.38,1.76,1.67.83.32,1.9.51,2.66.05,1.23-.76,1.93-2.17,2.72-3.38m43.1-11h0c.76-.76,1.87-1.28,2.27-2.28,1.28-3.14,1.4-6.67,2.66-9.81.76-1.91,2.41-3.35,3.33-5.18.74-1.48,1.19-3.1,1.63-4.69.1-.36.14-.77,0-1.12-.48-1.17-1.09-2.29-1.82-3.33-.1-.14-.41-.12-.52.02-1.52,1.94-2.71,4.12-4.24,6.06-.73.93-1.84,3.48-2.5,2.5-1.95-2.89-2.44-6.65-2.65-10.13-.71-11.33-.35-22.71-.12-34.06.01-.71.7-1.27.84-1.97.2-1,.14-2.02.15-3.03.04-5.33.22-10.67-.02-16-.05-1.04-.79-1.98-.83-3.03-.01-.39.63-.56.69-.94.22-1.34.6-2.8.13-4.08-.38-1.04-1.34-2.28-2.45-2.27-1.1,0-2.06,1.24-2.37,2.29-.29,1.01.68,2,.83,3.03.09.67.04,1.37-.13,2.03-.1.37-.67.58-.65.97.03.72.75,1.29.78,2,.23,5,.05,10,.01,15,0,.68.02,1.37-.15,2.03-.17.69-.82,1.26-.84,1.97-.26,11.33-.53,22.68,0,33.99.1,2.08,1.49,3.91,1.85,5.95.3,1.66.21,3.37.12,5.06-.03.46-.06,1.5-.48,1.3-1.08-.53-1.31-2.14-2.37-2.7-.78-.41-1.86-.33-2.66.05-.99.47-1.68,1.44-2.33,2.32-.2.28-.23.7-.12,1.03,1.01,2.86,2.08,5.72,3.45,8.43.71,1.41,1.95,2.49,2.77,3.84.98,1.64,1.12,3.89,2.59,5.12m-84.86-5.35h0c.05-1.37-.22-2.78.15-4.09.57-2.01,1.58-3.87,2.61-5.68.87-1.52,2.31-2.68,3.05-4.27.16-.35-.73-.63-.6-1,.29-.81,1.21-1.24,1.65-1.97.17-.3.16-.69.12-1.03-.07-.51-.19-1.04-.47-1.48-.23-.36-.57-.81-1-.82-.71-.01-1.29.77-2,.77s-1.32-.98-2-.77c-1.42.44-2.52,1.59-3.69,2.51-.73.58-1.93,2.91-2,1.98-1.62-21.68-1.36-43.46-2.72-65.15-.22-3.53-1.16-6.98-2.01-10.41-.05-.18-.41-.11-.57,0-.52.36-1.2.73-1.37,1.34-.36,1.29-.2,2.68-.13,4.02.84,17.32,2.22,34.62,2.85,51.95.04,1.06-.73,2.01-.85,3.06-.12,1-.06,2.04.13,3.03.08.38.65.58.65.97s-.6.59-.65.97c-.22,1.67-.15,3.35-.15,5.03,0,.68-.02,1.37.15,2.03.17.69.74,1.26.84,1.97.19,1.32.08,2.67,0,3.99-.02.42.03,1.48-.3,1.22-.88-.69-1.02-2.01-1.77-2.84-.65-.73-1.47-1.35-2.37-1.73-.63-.27-1.37-.19-2.05-.12-.52.05-1.04.2-1.48.48-.37.23-.76.55-.87.97-.25.98-.17,2.02-.13,3.02.02.45.09.92.3,1.31.97,1.82,2.25,3.45,3.2,5.27.87,1.66,1.37,3.49,2.23,5.15.26.5.87.75,1.1,1.25.23.51-.12,1.24.25,1.66,1.25,1.45,2.72,2.76,4.37,3.72.59.34,1.42.27,2.05,0,.73-.31,1.34-.93,1.72-1.63"></path></svg>